<?xml version="1.0" standalone="no"?><!DOCTYPE svg PUBLIC "-//W3C//DTD SVG 1.1//EN" "http://www.w3.org/Graphics/SVG/1.1/DTD/svg11.dtd"><svg t="1618991413615" class="icon" viewBox="0 0 1024 1024" version="1.1" xmlns="http://www.w3.org/2000/svg" p-id="5587" xmlns:xlink="http://www.w3.org/1999/xlink" width="200" height="200"><defs><style type="text/css"></style></defs><path d="M454.198549 856.251462c-53.599755 0-105.60827-10.503215-154.582681-31.216979-47.291073-20.00359-89.75828-48.632627-126.219703-85.095074-36.462446-36.462446-65.092507-78.929654-85.095073-126.220726-20.714787-48.974411-31.216979-100.983949-31.216979-154.583705s10.503215-105.60827 31.218002-154.58268c20.002566-47.291073 48.632627-89.757257 85.095074-126.219703 36.462446-36.462446 78.92863-65.092507 126.219703-85.095074C348.59028 72.522734 400.599817 62.019519 454.198549 62.019519s105.60827 10.503215 154.581658 31.218002c47.291073 20.002566 89.75828 48.632627 126.220726 85.095074 36.462446 36.462446 65.091484 78.92863 85.095074 126.219703 20.713764 48.974411 31.216979 100.983949 31.216979 154.58268 0 102.939487-39.223327 200.536292-110.446462 274.812973-9.487072 9.896394-25.200962 10.223852-35.094286 0.736781-9.894348-9.488095-10.223852-25.199938-0.73678-35.094286 62.317301-64.98813 96.635921-150.383032 96.635921-240.455468 0-191.597713-155.87614-347.473853-347.47283-347.473852s-347.472829 155.87614-347.472829 347.473852S262.60186 806.608831 454.198549 806.608831c32.573883 0 64.808028-4.497431 95.808067-13.369495 13.178137-3.765767 26.921139 3.854794 30.692022 17.033955 3.771907 13.179161-3.854794 26.920116-17.033955 30.692023-35.443233 10.143011-72.272024 15.286148-109.466134 15.286148z" fill="#e6e6e6" p-id="5588"></path><path d="M937.143816 960.063829a24.740474 24.740474 0 0 1-17.725709-7.444553l-214.193337-218.475873c-9.596566-9.788947-9.442046-25.50386 0.3469-35.100426 9.78997-9.598612 25.504884-9.441023 35.100426 0.346901l214.193337 218.475873c9.596566 9.788947 9.442046 25.50386-0.346901 35.100426a24.742521 24.742521 0 0 1-17.374716 7.097652z" fill="#e6e6e6" p-id="5589"></path></svg>